<mxfile host="65bd71144e">
    <diagram id="help-page-layout" name="HelpPage">
        <mxGraphModel dx="1254" dy="1169" grid="1" gridSize="10" guides="1" tooltips="1" connect="1" arrows="1" fold="1" page="1" pageScale="1" pageWidth="1200" pageHeight="800" background="#1a1a2e" math="0" shadow="0">
            <root>
                <mxCell id="0"/>
                <mxCell id="1" parent="0"/>
                <!-- 背景コンテナ -->
                <mxCell id="bg-container" value="" style="rounded=0;whiteSpace=wrap;html=1;fillColor=#0f0f1e;strokeColor=#2d2d44;" parent="1" vertex="1">
                    <mxGeometry x="0" y="0" width="1200" height="800" as="geometry"/>
                </mxCell>
                <!-- ヘッダー -->
                <mxCell id="header-bg" value="" style="rounded=0;whiteSpace=wrap;html=1;fillColor=#1e1e30;strokeColor=#2d2d44;" parent="1" vertex="1">
                    <mxGeometry x="0" y="0" width="1200" height="80" as="geometry"/>
                </mxCell>
                <mxCell id="page-title" value="ヘルプ" style="text;html=1;strokeColor=none;fillColor=none;align=center;verticalAlign=middle;whiteSpace=wrap;rounded=0;fontSize=32;fontColor=#ffffff;fontStyle=1;" parent="1" vertex="1">
                    <mxGeometry x="450" y="20" width="300" height="40" as="geometry"/>
                </mxCell>
                <mxCell id="back-btn" value="← メニューに戻る" style="rounded=1;whiteSpace=wrap;html=1;fillColor=#5c5c7e;strokeColor=#4c4c6e;fontSize=14;fontColor=#ffffff;" parent="1" vertex="1">
                    <mxGeometry x="20" y="20" width="140" height="40" as="geometry"/>
                </mxCell>
                <mxCell id="search-box" value="🔍 ヘルプを検索..." style="rounded=1;whiteSpace=wrap;html=1;fillColor=#2a2a3e;strokeColor=#3d3d55;fontSize=14;fontColor=#888888;align=left;" parent="1" vertex="1">
                    <mxGeometry x="900" y="20" width="280" height="40" as="geometry"/>
                </mxCell>
                <!-- メインコンテナ -->
                <mxCell id="main-container" value="" style="rounded=0;whiteSpace=wrap;html=1;fillColor=none;strokeColor=none;" parent="1" vertex="1">
                    <mxGeometry x="40" y="100" width="1120" height="660" as="geometry"/>
                </mxCell>
                <!-- 左側：カテゴリメニュー -->
                <mxCell id="category-panel" value="" style="rounded=1;whiteSpace=wrap;html=1;fillColor=#1e1e30;strokeColor=#2d2d44;" parent="1" vertex="1">
                    <mxGeometry x="60" y="120" width="260" height="620" as="geometry"/>
                </mxCell>
                <mxCell id="category-title" value="カテゴリ" style="text;html=1;strokeColor=none;fillColor=none;align=center;verticalAlign=middle;whiteSpace=wrap;rounded=0;fontSize=18;fontColor=#ffffff;fontStyle=1;" parent="1" vertex="1">
                    <mxGeometry x="60" y="130" width="260" height="30" as="geometry"/>
                </mxCell>
                <!-- カテゴリボタン -->
                <mxCell id="cat-basic" value="📖 ゲームの基本" style="rounded=1;whiteSpace=wrap;html=1;fillColor=#3498db;strokeColor=#2980b9;fontSize=14;fontColor=#ffffff;align=left;" parent="1" vertex="1">
                    <mxGeometry x="80" y="180" width="220" height="45" as="geometry"/>
                </mxCell>
                <mxCell id="cat-bubbles" value="💭 泡の種類" style="rounded=1;whiteSpace=wrap;html=1;fillColor=#2a2a3e;strokeColor=#3d3d55;fontSize=14;fontColor=#ffffff;align=left;" parent="1" vertex="1">
                    <mxGeometry x="80" y="235" width="220" height="45" as="geometry"/>
                </mxCell>
                <mxCell id="cat-controls" value="🎮 操作方法" style="rounded=1;whiteSpace=wrap;html=1;fillColor=#2a2a3e;strokeColor=#3d3d55;fontSize=14;fontColor=#ffffff;align=left;" parent="1" vertex="1">
                    <mxGeometry x="80" y="290" width="220" height="45" as="geometry"/>
                </mxCell>
                <mxCell id="cat-stages" value="🗺️ ステージガイド" style="rounded=1;whiteSpace=wrap;html=1;fillColor=#2a2a3e;strokeColor=#3d3d55;fontSize=14;fontColor=#ffffff;align=left;" parent="1" vertex="1">
                    <mxGeometry x="80" y="345" width="220" height="45" as="geometry"/>
                </mxCell>
                <mxCell id="cat-progression" value="📈 進歩システム" style="rounded=1;whiteSpace=wrap;html=1;fillColor=#2a2a3e;strokeColor=#3d3d55;fontSize=14;fontColor=#ffffff;align=left;" parent="1" vertex="1">
                    <mxGeometry x="80" y="400" width="220" height="45" as="geometry"/>
                </mxCell>
                <mxCell id="cat-achievements" value="🏆 実績システム" style="rounded=1;whiteSpace=wrap;html=1;fillColor=#2a2a3e;strokeColor=#3d3d55;fontSize=14;fontColor=#ffffff;align=left;" parent="1" vertex="1">
                    <mxGeometry x="80" y="455" width="220" height="45" as="geometry"/>
                </mxCell>
                <mxCell id="cat-shortcuts" value="⌨️ ショートカット" style="rounded=1;whiteSpace=wrap;html=1;fillColor=#2a2a3e;strokeColor=#3d3d55;fontSize=14;fontColor=#ffffff;align=left;" parent="1" vertex="1">
                    <mxGeometry x="80" y="510" width="220" height="45" as="geometry"/>
                </mxCell>
                <mxCell id="cat-tips" value="💡 攻略のコツ" style="rounded=1;whiteSpace=wrap;html=1;fillColor=#2a2a3e;strokeColor=#3d3d55;fontSize=14;fontColor=#ffffff;align=left;" parent="1" vertex="1">
                    <mxGeometry x="80" y="565" width="220" height="45" as="geometry"/>
                </mxCell>
                <mxCell id="cat-faq" value="❓ よくある質問" style="rounded=1;whiteSpace=wrap;html=1;fillColor=#2a2a3e;strokeColor=#3d3d55;fontSize=14;fontColor=#ffffff;align=left;" parent="1" vertex="1">
                    <mxGeometry x="80" y="620" width="220" height="45" as="geometry"/>
                </mxCell>
                <!-- 中央：コンテンツエリア -->
                <mxCell id="content-panel" value="" style="rounded=1;whiteSpace=wrap;html=1;fillColor=#1e1e30;strokeColor=#2d2d44;" parent="1" vertex="1">
                    <mxGeometry x="350" y="120" width="540" height="620" as="geometry"/>
                </mxCell>
                <mxCell id="content-scroll" value="" style="rounded=1;whiteSpace=wrap;html=1;fillColor=#2a2a3e;strokeColor=#3d3d55;" parent="1" vertex="1">
                    <mxGeometry x="370" y="140" width="500" height="580" as="geometry"/>
                </mxCell>
                <!-- コンテンツヘッダー -->
                <mxCell id="content-header" value="ゲームの基本" style="text;html=1;strokeColor=none;fillColor=none;align=center;verticalAlign=middle;whiteSpace=wrap;rounded=0;fontSize=24;fontColor=#ffffff;fontStyle=1;" parent="1" vertex="1">
                    <mxGeometry x="370" y="150" width="500" height="40" as="geometry"/>
                </mxCell>
                <!-- ゲーム概要 -->
                <mxCell id="section-1" value="" style="rounded=1;whiteSpace=wrap;html=1;fillColor=#333344;strokeColor=#444455;" parent="1" vertex="1">
                    <mxGeometry x="390" y="200" width="460" height="120" as="geometry"/>
                </mxCell>
                <mxCell id="section-1-title" value="ゲーム概要" style="text;html=1;strokeColor=none;fillColor=none;align=left;verticalAlign=middle;whiteSpace=wrap;rounded=0;fontSize=18;fontColor=#ffd700;fontStyle=1;" parent="1" vertex="1">
                    <mxGeometry x="400" y="210" width="440" height="25" as="geometry"/>
                </mxCell>
                <mxCell id="section-1-text" value="BubblePopは、画面に現れる様々な泡を割って&#10;スコアを獲得するアクションゲームです。&#10;制限時間内にできるだけ高いスコアを目指しましょう。" style="text;html=1;strokeColor=none;fillColor=none;align=left;verticalAlign=top;whiteSpace=wrap;rounded=0;fontSize=14;fontColor=#cccccc;" parent="1" vertex="1">
                    <mxGeometry x="400" y="240" width="440" height="70" as="geometry"/>
                </mxCell>
                <!-- 基本ルール -->
                <mxCell id="section-2" value="" style="rounded=1;whiteSpace=wrap;html=1;fillColor=#333344;strokeColor=#444455;" parent="1" vertex="1">
                    <mxGeometry x="390" y="330" width="460" height="160" as="geometry"/>
                </mxCell>
                <mxCell id="section-2-title" value="基本ルール" style="text;html=1;strokeColor=none;fillColor=none;align=left;verticalAlign=middle;whiteSpace=wrap;rounded=0;fontSize=18;fontColor=#ffd700;fontStyle=1;" parent="1" vertex="1">
                    <mxGeometry x="400" y="340" width="440" height="25" as="geometry"/>
                </mxCell>
                <mxCell id="rule-1" value="• 泡をクリック/タップして割る" style="text;html=1;strokeColor=none;fillColor=none;align=left;verticalAlign=middle;whiteSpace=wrap;rounded=0;fontSize=14;fontColor=#cccccc;" parent="1" vertex="1">
                    <mxGeometry x="410" y="370" width="420" height="20" as="geometry"/>
                </mxCell>
                <mxCell id="rule-2" value="• 放置すると泡が成長して破裂（ダメージ）" style="text;html=1;strokeColor=none;fillColor=none;align=left;verticalAlign=middle;whiteSpace=wrap;rounded=0;fontSize=14;fontColor=#cccccc;" parent="1" vertex="1">
                    <mxGeometry x="410" y="395" width="420" height="20" as="geometry"/>
                </mxCell>
                <mxCell id="rule-3" value="• HPが0になるかタイムアップで終了" style="text;html=1;strokeColor=none;fillColor=none;align=left;verticalAlign=middle;whiteSpace=wrap;rounded=0;fontSize=14;fontColor=#cccccc;" parent="1" vertex="1">
                    <mxGeometry x="410" y="420" width="420" height="20" as="geometry"/>
                </mxCell>
                <mxCell id="rule-4" value="• コンボを続けて高得点を狙う" style="text;html=1;strokeColor=none;fillColor=none;align=left;verticalAlign=middle;whiteSpace=wrap;rounded=0;fontSize=14;fontColor=#cccccc;" parent="1" vertex="1">
                    <mxGeometry x="410" y="445" width="420" height="20" as="geometry"/>
                </mxCell>
                <mxCell id="rule-5" value="• 特殊泡を活用して有利に進める" style="text;html=1;strokeColor=none;fillColor=none;align=left;verticalAlign=middle;whiteSpace=wrap;rounded=0;fontSize=14;fontColor=#cccccc;" parent="1" vertex="1">
                    <mxGeometry x="410" y="470" width="420" height="20" as="geometry"/>
                </mxCell>
                <!-- 基本操作 -->
                <mxCell id="section-3" value="" style="rounded=1;whiteSpace=wrap;html=1;fillColor=#333344;strokeColor=#444455;" parent="1" vertex="1">
                    <mxGeometry x="390" y="500" width="460" height="140" as="geometry"/>
                </mxCell>
                <mxCell id="section-3-title" value="基本操作" style="text;html=1;strokeColor=none;fillColor=none;align=left;verticalAlign=middle;whiteSpace=wrap;rounded=0;fontSize=18;fontColor=#ffd700;fontStyle=1;" parent="1" vertex="1">
                    <mxGeometry x="400" y="510" width="440" height="25" as="geometry"/>
                </mxCell>
                <mxCell id="control-1" value="🖱️ マウス: クリックで泡を割る" style="text;html=1;strokeColor=none;fillColor=none;align=left;verticalAlign=middle;whiteSpace=wrap;rounded=0;fontSize=14;fontColor=#cccccc;" parent="1" vertex="1">
                    <mxGeometry x="410" y="540" width="420" height="20" as="geometry"/>
                </mxCell>
                <mxCell id="control-2" value="👆 タッチ: タップで泡を割る" style="text;html=1;strokeColor=none;fillColor=none;align=left;verticalAlign=middle;whiteSpace=wrap;rounded=0;fontSize=14;fontColor=#cccccc;" parent="1" vertex="1">
                    <mxGeometry x="410" y="565" width="420" height="20" as="geometry"/>
                </mxCell>
                <mxCell id="control-3" value="⌨️ Space: ゲーム一時停止" style="text;html=1;strokeColor=none;fillColor=none;align=left;verticalAlign=middle;whiteSpace=wrap;rounded=0;fontSize=14;fontColor=#cccccc;" parent="1" vertex="1">
                    <mxGeometry x="410" y="590" width="420" height="20" as="geometry"/>
                </mxCell>
                <mxCell id="control-4" value="⌨️ Esc: メニューに戻る" style="text;html=1;strokeColor=none;fillColor=none;align=left;verticalAlign=middle;whiteSpace=wrap;rounded=0;fontSize=14;fontColor=#cccccc;" parent="1" vertex="1">
                    <mxGeometry x="410" y="615" width="420" height="20" as="geometry"/>
                </mxCell>
                <!-- もっと見るボタン -->
                <mxCell id="more-btn" value="もっと見る ↓" style="text;html=1;strokeColor=none;fillColor=none;align=center;verticalAlign=middle;whiteSpace=wrap;rounded=0;fontSize=14;fontColor=#888888;" parent="1" vertex="1">
                    <mxGeometry x="370" y="660" width="500" height="40" as="geometry"/>
                </mxCell>
                <!-- 右側：クイックリファレンス -->
                <mxCell id="quick-ref-panel" value="" style="rounded=1;whiteSpace=wrap;html=1;fillColor=#1e1e30;strokeColor=#2d2d44;" parent="1" vertex="1">
                    <mxGeometry x="920" y="120" width="220" height="620" as="geometry"/>
                </mxCell>
                <mxCell id="quick-ref-title" value="クイックガイド" style="text;html=1;strokeColor=none;fillColor=none;align=center;verticalAlign=middle;whiteSpace=wrap;rounded=0;fontSize=18;fontColor=#ffffff;fontStyle=1;" parent="1" vertex="1">
                    <mxGeometry x="920" y="130" width="220" height="30" as="geometry"/>
                </mxCell>
                <!-- 泡の色説明 -->
                <mxCell id="bubble-guide" value="" style="rounded=1;whiteSpace=wrap;html=1;fillColor=#2a2a3e;strokeColor=#3d3d55;" parent="1" vertex="1">
                    <mxGeometry x="940" y="180" width="180" height="240" as="geometry"/>
                </mxCell>
                <mxCell id="bubble-guide-title" value="泡の色" style="text;html=1;strokeColor=none;fillColor=none;align=center;verticalAlign=middle;whiteSpace=wrap;rounded=0;fontSize=16;fontColor=#ffffff;fontStyle=1;" parent="1" vertex="1">
                    <mxGeometry x="940" y="190" width="180" height="25" as="geometry"/>
                </mxCell>
                <mxCell id="bubble-blue" value="🔵 通常泡" style="text;html=1;strokeColor=none;fillColor=none;align=left;verticalAlign=middle;whiteSpace=wrap;rounded=0;fontSize=13;fontColor=#3498db;" parent="1" vertex="1">
                    <mxGeometry x="950" y="220" width="160" height="20" as="geometry"/>
                </mxCell>
                <mxCell id="bubble-gray" value="⚪ 石泡" style="text;html=1;strokeColor=none;fillColor=none;align=left;verticalAlign=middle;whiteSpace=wrap;rounded=0;fontSize=13;fontColor=#95a5a6;" parent="1" vertex="1">
                    <mxGeometry x="950" y="245" width="160" height="20" as="geometry"/>
                </mxCell>
                <mxCell id="bubble-red" value="🔴 ダイヤ泡" style="text;html=1;strokeColor=none;fillColor=none;align=left;verticalAlign=middle;whiteSpace=wrap;rounded=0;fontSize=13;fontColor=#e74c3c;" parent="1" vertex="1">
                    <mxGeometry x="950" y="270" width="160" height="20" as="geometry"/>
                </mxCell>
                <mxCell id="bubble-pink" value="🩷 回復泡" style="text;html=1;strokeColor=none;fillColor=none;align=left;verticalAlign=middle;whiteSpace=wrap;rounded=0;fontSize=13;fontColor=#ff69b4;" parent="1" vertex="1">
                    <mxGeometry x="950" y="295" width="160" height="20" as="geometry"/>
                </mxCell>
                <mxCell id="bubble-rainbow" value="🌈 虹色泡" style="text;html=1;strokeColor=none;fillColor=none;align=left;verticalAlign=middle;whiteSpace=wrap;rounded=0;fontSize=13;fontColor=#9b59b6;" parent="1" vertex="1">
                    <mxGeometry x="950" y="320" width="160" height="20" as="geometry"/>
                </mxCell>
                <mxCell id="bubble-green" value="🟢 毒泡" style="text;html=1;strokeColor=none;fillColor=none;align=left;verticalAlign=middle;whiteSpace=wrap;rounded=0;fontSize=13;fontColor=#2ecc71;" parent="1" vertex="1">
                    <mxGeometry x="950" y="345" width="160" height="20" as="geometry"/>
                </mxCell>
                <mxCell id="bubble-boss" value="👹 ボス泡" style="text;html=1;strokeColor=none;fillColor=none;align=left;verticalAlign=middle;whiteSpace=wrap;rounded=0;fontSize=13;fontColor=#c0392b;" parent="1" vertex="1">
                    <mxGeometry x="950" y="370" width="160" height="20" as="geometry"/>
                </mxCell>
                <mxCell id="bubble-more" value="... 他18種類" style="text;html=1;strokeColor=none;fillColor=none;align=center;verticalAlign=middle;whiteSpace=wrap;rounded=0;fontSize=12;fontColor=#666677;" parent="1" vertex="1">
                    <mxGeometry x="940" y="395" width="180" height="20" as="geometry"/>
                </mxCell>
                <!-- ショートカット -->
                <mxCell id="shortcuts-guide" value="" style="rounded=1;whiteSpace=wrap;html=1;fillColor=#2a2a3e;strokeColor=#3d3d55;" parent="1" vertex="1">
                    <mxGeometry x="940" y="440" width="180" height="180" as="geometry"/>
                </mxCell>
                <mxCell id="shortcuts-title" value="ショートカット" style="text;html=1;strokeColor=none;fillColor=none;align=center;verticalAlign=middle;whiteSpace=wrap;rounded=0;fontSize=16;fontColor=#ffffff;fontStyle=1;" parent="1" vertex="1">
                    <mxGeometry x="940" y="450" width="180" height="25" as="geometry"/>
                </mxCell>
                <mxCell id="shortcut-1" value="Space: 一時停止" style="text;html=1;strokeColor=none;fillColor=none;align=left;verticalAlign=middle;whiteSpace=wrap;rounded=0;fontSize=12;fontColor=#cccccc;" parent="1" vertex="1">
                    <mxGeometry x="950" y="480" width="160" height="20" as="geometry"/>
                </mxCell>
                <mxCell id="shortcut-2" value="R: リトライ" style="text;html=1;strokeColor=none;fillColor=none;align=left;verticalAlign=middle;whiteSpace=wrap;rounded=0;fontSize=12;fontColor=#cccccc;" parent="1" vertex="1">
                    <mxGeometry x="950" y="505" width="160" height="20" as="geometry"/>
                </mxCell>
                <mxCell id="shortcut-3" value="M: 音楽ON/OFF" style="text;html=1;strokeColor=none;fillColor=none;align=left;verticalAlign=middle;whiteSpace=wrap;rounded=0;fontSize=12;fontColor=#cccccc;" parent="1" vertex="1">
                    <mxGeometry x="950" y="530" width="160" height="20" as="geometry"/>
                </mxCell>
                <mxCell id="shortcut-4" value="S: 効果音ON/OFF" style="text;html=1;strokeColor=none;fillColor=none;align=left;verticalAlign=middle;whiteSpace=wrap;rounded=0;fontSize=12;fontColor=#cccccc;" parent="1" vertex="1">
                    <mxGeometry x="950" y="555" width="160" height="20" as="geometry"/>
                </mxCell>
                <mxCell id="shortcut-5" value="F: フルスクリーン" style="text;html=1;strokeColor=none;fillColor=none;align=left;verticalAlign=middle;whiteSpace=wrap;rounded=0;fontSize=12;fontColor=#cccccc;" parent="1" vertex="1">
                    <mxGeometry x="950" y="580" width="160" height="20" as="geometry"/>
                </mxCell>
                <!-- ヘルプボタン -->
                <mxCell id="tutorial-btn" value="チュートリアルを開始" style="rounded=1;whiteSpace=wrap;html=1;fillColor=#2ecc71;strokeColor=#27ae60;fontSize=14;fontColor=#ffffff;fontStyle=1;" parent="1" vertex="1">
                    <mxGeometry x="960" y="660" width="140" height="40" as="geometry"/>
                </mxCell>
            </root>
        </mxGraphModel>
    </diagram>
</mxfile>